<?xml version="1.0" encoding="utf-8"?>
<svg version="1.1" id="Layer_1" xmlns="http://www.w3.org/2000/svg" xmlns:xlink="http://www.w3.org/1999/xlink" x="0px" y="0px"
	 viewBox="0 0 192 192" style="enable-background:new 0 0 192 192;" xml:space="preserve">
<style type="text/css">
	.st0{fill:#39D9FD;}
</style>
<g>
	<path class="st0" d="M151,65.8H61.1c-2.7,0-4.9,2.2-4.9,4.8v7.6c0,2.7,2.2,4.8,4.9,4.8H151c2.7,0,4.9-2.2,4.9-4.8v-7.6
		C155.9,68,153.7,65.8,151,65.8z"/>
	<path class="st0" d="M130.9,108.9H41c-2.7,0-4.9,2.2-4.9,4.8v7.6c0,2.7,2.2,4.8,4.9,4.8h89.9c2.7,0,4.9-2.2,4.9-4.8v-7.6
		C135.8,111.1,133.6,108.9,130.9,108.9z"/>
</g>
</svg>

